<svg width="16" height="16" viewBox="0 0 16 16" fill="none" xmlns="http://www.w3.org/2000/svg">
<path d="M8.96467 1.63248L10.2847 4.27248C10.4647 4.63998 10.9447 4.99248 11.3497 5.05998L13.7422 5.45748C15.2722 5.71248 15.6322 6.82248 14.5297 7.91748L12.6697 9.77748C12.3547 10.0925 12.1822 10.7 12.2797 11.135L12.8122 13.4375C13.2322 15.26 12.2647 15.965 10.6522 15.0125L8.40967 13.685C8.00467 13.445 7.33717 13.445 6.92467 13.685L4.68217 15.0125C3.07717 15.965 2.10217 15.2525 2.52217 13.4375L3.05467 11.135C3.15217 10.7 2.97967 10.0925 2.66467 9.77748L0.804668 7.91748C-0.290332 6.82248 0.0621683 5.71248 1.59217 5.45748L3.98467 5.05998C4.38217 4.99248 4.86217 4.63998 5.04217 4.27248L6.36217 1.63248C7.08217 0.19998 8.25217 0.19998 8.96467 1.63248Z" fill="#FFCD1A"/>
</svg>
